<mxfile host="app.diagrams.net" modified="2024-03-20T13:57:02.783Z" agent="Mozilla/5.0 (Windows NT 10.0; Win64; x64) AppleWebKit/537.36 (KHTML, like Gecko) Chrome/121.0.0.0 Safari/537.36 OPR/107.0.0.0" etag="eOHLhDVhKMpKDCnxMEYp" version="24.0.7" type="google">
  <diagram id="C5RBs43oDa-KdzZeNtuy" name="Page-1">
    <mxGraphModel grid="1" page="1" gridSize="10" guides="1" tooltips="1" connect="1" arrows="1" fold="1" pageScale="1" pageWidth="827" pageHeight="1169" math="0" shadow="0">
      <root>
        <mxCell id="WIyWlLk6GJQsqaUBKTNV-0" />
        <mxCell id="WIyWlLk6GJQsqaUBKTNV-1" parent="WIyWlLk6GJQsqaUBKTNV-0" />
        <mxCell id="-gXMC-IU2wIC_211BXXe-2" value="" style="edgeStyle=orthogonalEdgeStyle;rounded=0;orthogonalLoop=1;jettySize=auto;html=1;" edge="1" parent="WIyWlLk6GJQsqaUBKTNV-1" source="-gXMC-IU2wIC_211BXXe-0" target="-gXMC-IU2wIC_211BXXe-1">
          <mxGeometry relative="1" as="geometry" />
        </mxCell>
        <mxCell id="-gXMC-IU2wIC_211BXXe-0" value="START" style="ellipse;whiteSpace=wrap;html=1;" vertex="1" parent="WIyWlLk6GJQsqaUBKTNV-1">
          <mxGeometry x="255" y="120" width="50" height="50" as="geometry" />
        </mxCell>
        <mxCell id="-gXMC-IU2wIC_211BXXe-4" value="" style="edgeStyle=orthogonalEdgeStyle;rounded=0;orthogonalLoop=1;jettySize=auto;html=1;" edge="1" parent="WIyWlLk6GJQsqaUBKTNV-1" source="-gXMC-IU2wIC_211BXXe-1" target="-gXMC-IU2wIC_211BXXe-3">
          <mxGeometry relative="1" as="geometry" />
        </mxCell>
        <mxCell id="-gXMC-IU2wIC_211BXXe-1" value="Bob (Office Manager) asks for a financial report" style="rounded=1;whiteSpace=wrap;html=1;" vertex="1" parent="WIyWlLk6GJQsqaUBKTNV-1">
          <mxGeometry x="220" y="210" width="120" height="60" as="geometry" />
        </mxCell>
        <mxCell id="-gXMC-IU2wIC_211BXXe-10" value="" style="edgeStyle=orthogonalEdgeStyle;rounded=0;orthogonalLoop=1;jettySize=auto;html=1;" edge="1" parent="WIyWlLk6GJQsqaUBKTNV-1" source="-gXMC-IU2wIC_211BXXe-3" target="-gXMC-IU2wIC_211BXXe-9">
          <mxGeometry relative="1" as="geometry" />
        </mxCell>
        <mxCell id="-gXMC-IU2wIC_211BXXe-3" value="tasks goes to Finance Manager &amp;amp; Accountant" style="rounded=1;whiteSpace=wrap;html=1;" vertex="1" parent="WIyWlLk6GJQsqaUBKTNV-1">
          <mxGeometry x="220" y="310" width="120" height="60" as="geometry" />
        </mxCell>
        <mxCell id="-gXMC-IU2wIC_211BXXe-8" value="" style="edgeStyle=orthogonalEdgeStyle;rounded=0;orthogonalLoop=1;jettySize=auto;html=1;" edge="1" parent="WIyWlLk6GJQsqaUBKTNV-1" source="-gXMC-IU2wIC_211BXXe-5" target="-gXMC-IU2wIC_211BXXe-7">
          <mxGeometry relative="1" as="geometry" />
        </mxCell>
        <mxCell id="-gXMC-IU2wIC_211BXXe-5" value="Finance Manager collects all the cash payment/credit card slips from the servers" style="rounded=1;whiteSpace=wrap;html=1;" vertex="1" parent="WIyWlLk6GJQsqaUBKTNV-1">
          <mxGeometry x="220" y="510" width="120" height="60" as="geometry" />
        </mxCell>
        <mxCell id="-gXMC-IU2wIC_211BXXe-24" value="" style="edgeStyle=orthogonalEdgeStyle;rounded=0;orthogonalLoop=1;jettySize=auto;html=1;" edge="1" parent="WIyWlLk6GJQsqaUBKTNV-1" source="-gXMC-IU2wIC_211BXXe-7" target="-gXMC-IU2wIC_211BXXe-23">
          <mxGeometry relative="1" as="geometry" />
        </mxCell>
        <mxCell id="-gXMC-IU2wIC_211BXXe-7" value="Servers pay what is owed by giving the cash payment &amp;amp; credit card slips" style="rounded=1;whiteSpace=wrap;html=1;" vertex="1" parent="WIyWlLk6GJQsqaUBKTNV-1">
          <mxGeometry x="420" y="510" width="120" height="60" as="geometry" />
        </mxCell>
        <mxCell id="-gXMC-IU2wIC_211BXXe-11" style="edgeStyle=orthogonalEdgeStyle;rounded=0;orthogonalLoop=1;jettySize=auto;html=1;exitX=0.5;exitY=1;exitDx=0;exitDy=0;entryX=0.5;entryY=0;entryDx=0;entryDy=0;" edge="1" parent="WIyWlLk6GJQsqaUBKTNV-1" source="-gXMC-IU2wIC_211BXXe-9" target="-gXMC-IU2wIC_211BXXe-5">
          <mxGeometry relative="1" as="geometry" />
        </mxCell>
        <mxCell id="-gXMC-IU2wIC_211BXXe-9" value="Shift ends" style="rounded=1;whiteSpace=wrap;html=1;" vertex="1" parent="WIyWlLk6GJQsqaUBKTNV-1">
          <mxGeometry x="220" y="410" width="120" height="60" as="geometry" />
        </mxCell>
        <mxCell id="-gXMC-IU2wIC_211BXXe-26" value="" style="edgeStyle=orthogonalEdgeStyle;rounded=0;orthogonalLoop=1;jettySize=auto;html=1;" edge="1" parent="WIyWlLk6GJQsqaUBKTNV-1" source="-gXMC-IU2wIC_211BXXe-23" target="-gXMC-IU2wIC_211BXXe-25">
          <mxGeometry relative="1" as="geometry" />
        </mxCell>
        <mxCell id="-gXMC-IU2wIC_211BXXe-44" value="No" style="edgeLabel;html=1;align=center;verticalAlign=middle;resizable=0;points=[];" connectable="0" vertex="1" parent="-gXMC-IU2wIC_211BXXe-26">
          <mxGeometry x="0.24" y="3" relative="1" as="geometry">
            <mxPoint as="offset" />
          </mxGeometry>
        </mxCell>
        <mxCell id="-gXMC-IU2wIC_211BXXe-36" style="edgeStyle=orthogonalEdgeStyle;rounded=0;orthogonalLoop=1;jettySize=auto;html=1;exitX=0.5;exitY=0;exitDx=0;exitDy=0;entryX=0;entryY=0.5;entryDx=0;entryDy=0;" edge="1" parent="WIyWlLk6GJQsqaUBKTNV-1" source="-gXMC-IU2wIC_211BXXe-23" target="-gXMC-IU2wIC_211BXXe-35">
          <mxGeometry relative="1" as="geometry" />
        </mxCell>
        <mxCell id="-gXMC-IU2wIC_211BXXe-43" value="Yes" style="edgeLabel;html=1;align=center;verticalAlign=middle;resizable=0;points=[];" connectable="0" vertex="1" parent="-gXMC-IU2wIC_211BXXe-36">
          <mxGeometry x="-0.1407" y="-1" relative="1" as="geometry">
            <mxPoint as="offset" />
          </mxGeometry>
        </mxCell>
        <mxCell id="-gXMC-IU2wIC_211BXXe-23" value="Customers paid more by card?" style="rhombus;whiteSpace=wrap;html=1;rounded=1;" vertex="1" parent="WIyWlLk6GJQsqaUBKTNV-1">
          <mxGeometry x="430" y="350" width="100" height="120" as="geometry" />
        </mxCell>
        <mxCell id="-gXMC-IU2wIC_211BXXe-28" value="" style="edgeStyle=orthogonalEdgeStyle;rounded=0;orthogonalLoop=1;jettySize=auto;html=1;" edge="1" parent="WIyWlLk6GJQsqaUBKTNV-1" source="-gXMC-IU2wIC_211BXXe-25" target="-gXMC-IU2wIC_211BXXe-27">
          <mxGeometry relative="1" as="geometry" />
        </mxCell>
        <mxCell id="-gXMC-IU2wIC_211BXXe-25" value="pay what is owed by cash" style="whiteSpace=wrap;html=1;rounded=1;" vertex="1" parent="WIyWlLk6GJQsqaUBKTNV-1">
          <mxGeometry x="560" y="380" width="120" height="60" as="geometry" />
        </mxCell>
        <mxCell id="-gXMC-IU2wIC_211BXXe-30" value="" style="edgeStyle=orthogonalEdgeStyle;rounded=0;orthogonalLoop=1;jettySize=auto;html=1;" edge="1" parent="WIyWlLk6GJQsqaUBKTNV-1" source="-gXMC-IU2wIC_211BXXe-27" target="-gXMC-IU2wIC_211BXXe-29">
          <mxGeometry relative="1" as="geometry" />
        </mxCell>
        <mxCell id="-gXMC-IU2wIC_211BXXe-41" value="Yes" style="edgeLabel;html=1;align=center;verticalAlign=middle;resizable=0;points=[];" connectable="0" vertex="1" parent="-gXMC-IU2wIC_211BXXe-30">
          <mxGeometry x="0.5706" y="-2" relative="1" as="geometry">
            <mxPoint as="offset" />
          </mxGeometry>
        </mxCell>
        <mxCell id="-gXMC-IU2wIC_211BXXe-38" style="edgeStyle=orthogonalEdgeStyle;rounded=0;orthogonalLoop=1;jettySize=auto;html=1;exitX=1;exitY=0.5;exitDx=0;exitDy=0;entryX=0.5;entryY=0;entryDx=0;entryDy=0;" edge="1" parent="WIyWlLk6GJQsqaUBKTNV-1" source="-gXMC-IU2wIC_211BXXe-27" target="-gXMC-IU2wIC_211BXXe-31">
          <mxGeometry relative="1" as="geometry" />
        </mxCell>
        <mxCell id="-gXMC-IU2wIC_211BXXe-40" value="No" style="edgeLabel;html=1;align=center;verticalAlign=middle;resizable=0;points=[];" connectable="0" vertex="1" parent="-gXMC-IU2wIC_211BXXe-38">
          <mxGeometry x="0.4973" y="-3" relative="1" as="geometry">
            <mxPoint as="offset" />
          </mxGeometry>
        </mxCell>
        <mxCell id="-gXMC-IU2wIC_211BXXe-27" value="additional cash left?" style="rhombus;whiteSpace=wrap;html=1;rounded=1;" vertex="1" parent="WIyWlLk6GJQsqaUBKTNV-1">
          <mxGeometry x="700" y="250" width="80" height="80" as="geometry" />
        </mxCell>
        <mxCell id="-gXMC-IU2wIC_211BXXe-46" style="edgeStyle=orthogonalEdgeStyle;rounded=0;orthogonalLoop=1;jettySize=auto;html=1;exitX=1;exitY=0.5;exitDx=0;exitDy=0;entryX=0.5;entryY=0;entryDx=0;entryDy=0;" edge="1" parent="WIyWlLk6GJQsqaUBKTNV-1" source="-gXMC-IU2wIC_211BXXe-29" target="-gXMC-IU2wIC_211BXXe-45">
          <mxGeometry relative="1" as="geometry" />
        </mxCell>
        <mxCell id="-gXMC-IU2wIC_211BXXe-29" value="Server gets tip" style="whiteSpace=wrap;html=1;rounded=1;" vertex="1" parent="WIyWlLk6GJQsqaUBKTNV-1">
          <mxGeometry x="827" y="160" width="120" height="60" as="geometry" />
        </mxCell>
        <mxCell id="-gXMC-IU2wIC_211BXXe-47" style="edgeStyle=orthogonalEdgeStyle;rounded=0;orthogonalLoop=1;jettySize=auto;html=1;exitX=1;exitY=0.5;exitDx=0;exitDy=0;entryX=0.5;entryY=1;entryDx=0;entryDy=0;" edge="1" parent="WIyWlLk6GJQsqaUBKTNV-1" source="-gXMC-IU2wIC_211BXXe-31" target="-gXMC-IU2wIC_211BXXe-45">
          <mxGeometry relative="1" as="geometry" />
        </mxCell>
        <mxCell id="-gXMC-IU2wIC_211BXXe-31" value="Server gets no tip" style="whiteSpace=wrap;html=1;rounded=1;" vertex="1" parent="WIyWlLk6GJQsqaUBKTNV-1">
          <mxGeometry x="827" y="370" width="120" height="60" as="geometry" />
        </mxCell>
        <mxCell id="-gXMC-IU2wIC_211BXXe-37" style="edgeStyle=orthogonalEdgeStyle;rounded=0;orthogonalLoop=1;jettySize=auto;html=1;exitX=1;exitY=0.5;exitDx=0;exitDy=0;" edge="1" parent="WIyWlLk6GJQsqaUBKTNV-1" source="-gXMC-IU2wIC_211BXXe-35" target="-gXMC-IU2wIC_211BXXe-27">
          <mxGeometry relative="1" as="geometry" />
        </mxCell>
        <mxCell id="-gXMC-IU2wIC_211BXXe-35" value="need to swap credit card slips for cash with other servers" style="rounded=1;whiteSpace=wrap;html=1;" vertex="1" parent="WIyWlLk6GJQsqaUBKTNV-1">
          <mxGeometry x="560" y="130" width="120" height="60" as="geometry" />
        </mxCell>
        <mxCell id="-gXMC-IU2wIC_211BXXe-49" value="" style="edgeStyle=orthogonalEdgeStyle;rounded=0;orthogonalLoop=1;jettySize=auto;html=1;" edge="1" parent="WIyWlLk6GJQsqaUBKTNV-1" source="-gXMC-IU2wIC_211BXXe-45" target="-gXMC-IU2wIC_211BXXe-48">
          <mxGeometry relative="1" as="geometry" />
        </mxCell>
        <mxCell id="-gXMC-IU2wIC_211BXXe-45" value="Accountant checks money&amp;nbsp;" style="rounded=1;whiteSpace=wrap;html=1;" vertex="1" parent="WIyWlLk6GJQsqaUBKTNV-1">
          <mxGeometry x="980" y="270" width="120" height="60" as="geometry" />
        </mxCell>
        <mxCell id="-gXMC-IU2wIC_211BXXe-51" value="" style="edgeStyle=orthogonalEdgeStyle;rounded=0;orthogonalLoop=1;jettySize=auto;html=1;" edge="1" parent="WIyWlLk6GJQsqaUBKTNV-1" source="-gXMC-IU2wIC_211BXXe-48" target="-gXMC-IU2wIC_211BXXe-50">
          <mxGeometry relative="1" as="geometry" />
        </mxCell>
        <mxCell id="-gXMC-IU2wIC_211BXXe-67" value="Yes" style="edgeLabel;html=1;align=center;verticalAlign=middle;resizable=0;points=[];" connectable="0" vertex="1" parent="-gXMC-IU2wIC_211BXXe-51">
          <mxGeometry x="-0.4" y="-1" relative="1" as="geometry">
            <mxPoint as="offset" />
          </mxGeometry>
        </mxCell>
        <mxCell id="-gXMC-IU2wIC_211BXXe-55" value="" style="edgeStyle=orthogonalEdgeStyle;rounded=0;orthogonalLoop=1;jettySize=auto;html=1;" edge="1" parent="WIyWlLk6GJQsqaUBKTNV-1" source="-gXMC-IU2wIC_211BXXe-48" target="-gXMC-IU2wIC_211BXXe-54">
          <mxGeometry relative="1" as="geometry" />
        </mxCell>
        <mxCell id="-gXMC-IU2wIC_211BXXe-66" value="No" style="edgeLabel;html=1;align=center;verticalAlign=middle;resizable=0;points=[];" connectable="0" vertex="1" parent="-gXMC-IU2wIC_211BXXe-55">
          <mxGeometry x="-0.0143" y="-1" relative="1" as="geometry">
            <mxPoint as="offset" />
          </mxGeometry>
        </mxCell>
        <mxCell id="-gXMC-IU2wIC_211BXXe-48" value="insufficient?" style="rhombus;whiteSpace=wrap;html=1;rounded=1;" vertex="1" parent="WIyWlLk6GJQsqaUBKTNV-1">
          <mxGeometry x="1110" y="390" width="80" height="80" as="geometry" />
        </mxCell>
        <mxCell id="-gXMC-IU2wIC_211BXXe-53" value="" style="edgeStyle=orthogonalEdgeStyle;rounded=0;orthogonalLoop=1;jettySize=auto;html=1;" edge="1" parent="WIyWlLk6GJQsqaUBKTNV-1" source="-gXMC-IU2wIC_211BXXe-50" target="-gXMC-IU2wIC_211BXXe-52">
          <mxGeometry relative="1" as="geometry" />
        </mxCell>
        <mxCell id="-gXMC-IU2wIC_211BXXe-50" value="Servers hand in all the credit card slips" style="whiteSpace=wrap;html=1;rounded=1;" vertex="1" parent="WIyWlLk6GJQsqaUBKTNV-1">
          <mxGeometry x="1090" y="520" width="120" height="60" as="geometry" />
        </mxCell>
        <mxCell id="-gXMC-IU2wIC_211BXXe-58" value="" style="edgeStyle=orthogonalEdgeStyle;rounded=0;orthogonalLoop=1;jettySize=auto;html=1;" edge="1" parent="WIyWlLk6GJQsqaUBKTNV-1" source="-gXMC-IU2wIC_211BXXe-52" target="-gXMC-IU2wIC_211BXXe-57">
          <mxGeometry relative="1" as="geometry" />
        </mxCell>
        <mxCell id="-gXMC-IU2wIC_211BXXe-52" value="Accountant checks money one last time before giving it to Bev &amp;amp; Bob" style="whiteSpace=wrap;html=1;rounded=1;" vertex="1" parent="WIyWlLk6GJQsqaUBKTNV-1">
          <mxGeometry x="770" y="540" width="120" height="60" as="geometry" />
        </mxCell>
        <mxCell id="-gXMC-IU2wIC_211BXXe-56" style="edgeStyle=orthogonalEdgeStyle;rounded=0;orthogonalLoop=1;jettySize=auto;html=1;exitX=0.5;exitY=1;exitDx=0;exitDy=0;entryX=1;entryY=0.5;entryDx=0;entryDy=0;" edge="1" parent="WIyWlLk6GJQsqaUBKTNV-1" source="-gXMC-IU2wIC_211BXXe-54" target="-gXMC-IU2wIC_211BXXe-52">
          <mxGeometry relative="1" as="geometry">
            <Array as="points">
              <mxPoint x="960" y="570" />
            </Array>
          </mxGeometry>
        </mxCell>
        <mxCell id="-gXMC-IU2wIC_211BXXe-54" value="Servers do not hand in all credit card slips and get their tips today" style="whiteSpace=wrap;html=1;rounded=1;" vertex="1" parent="WIyWlLk6GJQsqaUBKTNV-1">
          <mxGeometry x="900" y="450" width="120" height="60" as="geometry" />
        </mxCell>
        <mxCell id="-gXMC-IU2wIC_211BXXe-61" value="" style="edgeStyle=orthogonalEdgeStyle;rounded=0;orthogonalLoop=1;jettySize=auto;html=1;" edge="1" parent="WIyWlLk6GJQsqaUBKTNV-1" source="-gXMC-IU2wIC_211BXXe-57" target="-gXMC-IU2wIC_211BXXe-60">
          <mxGeometry relative="1" as="geometry" />
        </mxCell>
        <mxCell id="-gXMC-IU2wIC_211BXXe-64" value="Yes" style="edgeLabel;html=1;align=center;verticalAlign=middle;resizable=0;points=[];" connectable="0" vertex="1" parent="-gXMC-IU2wIC_211BXXe-61">
          <mxGeometry x="-0.4" y="-3" relative="1" as="geometry">
            <mxPoint as="offset" />
          </mxGeometry>
        </mxCell>
        <mxCell id="-gXMC-IU2wIC_211BXXe-62" style="edgeStyle=orthogonalEdgeStyle;rounded=0;orthogonalLoop=1;jettySize=auto;html=1;exitX=0.5;exitY=1;exitDx=0;exitDy=0;entryX=1;entryY=0.5;entryDx=0;entryDy=0;" edge="1" parent="WIyWlLk6GJQsqaUBKTNV-1" source="-gXMC-IU2wIC_211BXXe-57" target="-gXMC-IU2wIC_211BXXe-59">
          <mxGeometry relative="1" as="geometry" />
        </mxCell>
        <mxCell id="-gXMC-IU2wIC_211BXXe-65" value="No" style="edgeLabel;html=1;align=center;verticalAlign=middle;resizable=0;points=[];" connectable="0" vertex="1" parent="-gXMC-IU2wIC_211BXXe-62">
          <mxGeometry x="0.21" y="-1" relative="1" as="geometry">
            <mxPoint as="offset" />
          </mxGeometry>
        </mxCell>
        <mxCell id="-gXMC-IU2wIC_211BXXe-57" value="More than $1000?" style="rhombus;whiteSpace=wrap;html=1;rounded=1;" vertex="1" parent="WIyWlLk6GJQsqaUBKTNV-1">
          <mxGeometry x="790" y="660" width="80" height="80" as="geometry" />
        </mxCell>
        <mxCell id="-gXMC-IU2wIC_211BXXe-59" value="END" style="ellipse;whiteSpace=wrap;html=1;" vertex="1" parent="WIyWlLk6GJQsqaUBKTNV-1">
          <mxGeometry x="645" y="780" width="50" height="50" as="geometry" />
        </mxCell>
        <mxCell id="-gXMC-IU2wIC_211BXXe-63" style="edgeStyle=orthogonalEdgeStyle;rounded=0;orthogonalLoop=1;jettySize=auto;html=1;exitX=0.5;exitY=1;exitDx=0;exitDy=0;entryX=0.5;entryY=0;entryDx=0;entryDy=0;" edge="1" parent="WIyWlLk6GJQsqaUBKTNV-1" source="-gXMC-IU2wIC_211BXXe-60" target="-gXMC-IU2wIC_211BXXe-59">
          <mxGeometry relative="1" as="geometry" />
        </mxCell>
        <mxCell id="-gXMC-IU2wIC_211BXXe-60" value="Bev &amp;amp; Bob bring the money to the Bank on their way home" style="whiteSpace=wrap;html=1;rounded=1;" vertex="1" parent="WIyWlLk6GJQsqaUBKTNV-1">
          <mxGeometry x="610" y="670" width="120" height="60" as="geometry" />
        </mxCell>
      </root>
    </mxGraphModel>
  </diagram>
</mxfile>
